<?xml version="1.0" encoding="UTF-8"?>
<svg id="Layer_2" xmlns="http://www.w3.org/2000/svg" viewBox="0 0 683.36 379.18">
  <g id="Layer_1-2" data-name="Layer_1">
    <g>
      <path d="M681.51,222.72c-3.48,4.27-3.98,4.91-6.29,7.22-12.81,12.85-25.99,25.46-38.52,38.62-5.87,6.16-12.28,8.58-20.75,8.51-35.03-.25-70.04.22-105.07-.25-10.57-.14-18.3,3.16-25.59,10.67-26.84,27.7-54.35,54.82-81.26,82.46-6.48,6.67-13.46,9.36-22.71,9.22-13.21-.21-66.11-.21-79.33,0-9.25.14-16.22-2.55-22.71-9.22-26.91-27.65-54.41-54.76-81.26-82.46-7.29-7.51-15.02-10.82-25.59-10.67-35.03.47-70.04,0-105.07.25-8.47.08-14.87-2.35-20.75-8.51-12.53-13.16-25.7-25.77-38.51-38.62-2.31-2.31-2.81-2.96-6.29-7.22-3.48-4.27-3.01-3.68,10.04-3.92,6.08-.03,26.79-.1,40.21-.1,49.58,0,99.13.29,148.71-.25,12.02-.1,20.96,3.06,29.5,11.88,26.34,27.17,53.71,53.36,80.26,80.34,6.73,6.83,13.71,10.24,23.52,10,2.79-.06,12.4-.06,15.19,0,9.82.25,16.79-3.16,23.52-10,26.55-26.97,53.92-53.17,80.26-80.34,8.55-8.82,17.48-11.98,29.5-11.88,49.58.53,99.13.25,148.71.25,13.42,0,34.13.08,40.21.1,13.05.23,13.51-.35,10.04,3.92Z"/>
      <g>
        <path d="M234.93,370.51c-2.42.18-79.33.71-90.55.78-7.58.07-13.49-2.1-18.83-7.62-13.17-13.6-44.31-44.99-46.34-47.44-.53-.43-.75-1.14-.5-1.78.25-.64.92-1.03,1.64-.93,3.99-.28,90.19-.78,90.55-.82,7.58-.04,13.49,2.14,18.83,7.65,13.17,13.6,44.31,44.99,46.34,47.44.43,1.07.04,2.21-1.14,2.7Z"/>
        <path d="M448.43,370.51c2.42.18,79.33.71,90.55.78,7.58.07,13.49-2.1,18.83-7.62,13.17-13.6,44.31-44.99,46.34-47.44.53-.43.75-1.14.5-1.78-.25-.64-.92-1.03-1.64-.93-3.99-.28-90.19-.78-90.55-.82-7.58-.04-13.49,2.14-18.83,7.65-13.17,13.6-44.31,44.99-46.34,47.44-.43,1.07-.04,2.21,1.14,2.7Z"/>
      </g>
      <path d="M335.92,273.77s-.07,0-.1-.02c-.13-.04-.22-.17-.22-.31l1.17-115.9c0-1.7-.23-2.66-.78-3.21-.52-.53-1.43-.75-3.02-.75h-.15c-9.39.08-25.09.1-36.61.1-12.75,0-23.24-.02-23.24-.02-.12,0-.23-.07-.29-.17-.06-.11-.05-.24.02-.33L379.73.14c.06-.09.16-.14.27-.14.03,0,.07,0,.1.02.13.04.23.17.23.31v114.44c.01,2.11,1.73,3.83,3.84,3.83,0,0,62.74-.09,62.74-.09.12,0,.23.07.29.18.06.11.05.24-.03.34l-110.98,154.62c-.06.09-.16.13-.26.13Z"/>
    </g>
  </g>
</svg>